<svg id="Flat" height="512" viewBox="0 0 512 512" width="512" xmlns="http://www.w3.org/2000/svg"><g fill="#a3d4f7"><path d="m488 120c-40.258 0-60.661-8.443-80.394-16.608-19.129-7.915-37.198-15.392-74.275-15.392s-55.146 7.477-74.276 15.393c-19.733 8.165-40.136 16.607-80.393 16.607s-60.662-8.443-80.39-16.608c-19.128-7.915-37.196-15.392-74.272-15.392a8 8 0 0 1 0-16c40.256 0 60.658 8.443 80.39 16.608 19.129 7.915 37.197 15.392 74.272 15.392s55.146-7.477 74.276-15.392c19.732-8.165 40.135-16.608 80.393-16.608s60.66 8.442 80.393 16.607c19.13 7.916 37.198 15.393 74.276 15.393a8 8 0 0 1 0 16z"/><path d="m488 200c-40.258 0-60.661-8.443-80.394-16.608-19.129-7.915-37.198-15.392-74.275-15.392s-55.146 7.477-74.276 15.393c-19.733 8.165-40.136 16.607-80.393 16.607s-60.662-8.443-80.39-16.608c-19.128-7.915-37.196-15.392-74.272-15.392a8 8 0 0 1 0-16c40.256 0 60.658 8.443 80.39 16.608 19.129 7.915 37.2 15.392 74.272 15.392s55.146-7.477 74.276-15.392c19.732-8.165 40.135-16.608 80.393-16.608s60.66 8.442 80.393 16.607c19.13 7.916 37.198 15.393 74.276 15.393a8 8 0 0 1 0 16z"/><path d="m488 280c-40.258 0-60.661-8.443-80.394-16.608-19.129-7.915-37.198-15.392-74.275-15.392s-55.146 7.477-74.276 15.393c-19.733 8.165-40.136 16.607-80.393 16.607s-60.662-8.443-80.39-16.608c-19.128-7.915-37.196-15.392-74.272-15.392a8 8 0 0 1 0-16c40.256 0 60.658 8.443 80.39 16.608 19.129 7.915 37.2 15.392 74.272 15.392s55.146-7.477 74.276-15.392c19.732-8.165 40.135-16.608 80.393-16.608s60.66 8.442 80.393 16.607c19.13 7.916 37.198 15.393 74.276 15.393a8 8 0 0 1 0 16z"/></g><path d="m237.072 57.813a7.993 7.993 0 0 0 -6.641-1.658l-80 16a8 8 0 0 0 -6.431 7.845v57.376a24 24 0 1 0 16 22.624v-73.441l64-12.8v47.617a24 24 0 1 0 16 22.624v-80a8 8 0 0 0 -2.928-6.187zm-101.072 110.187a8 8 0 1 1 8-8 8.009 8.009 0 0 1 -8 8zm80-16a8 8 0 1 1 8-8 8.009 8.009 0 0 1 -8 8z" fill="#3397e8"/><path d="m56 200a8 8 0 0 0 -8 8v57.376a24 24 0 1 0 16 22.624v-80a8 8 0 0 0 -8-8zm-16 96a8 8 0 1 1 8-8 8.009 8.009 0 0 1 -8 8z" fill="#3397e8"/><path d="m367.761 190.06a7.994 7.994 0 0 0 -9.7-5.821l-64 16a8 8 0 0 0 -6.061 7.761v57.376a24 24 0 1 0 16 22.624v-73.754l57.94-14.485a8 8 0 0 0 5.821-9.701zm-87.761 105.94a8 8 0 1 1 8-8 8.009 8.009 0 0 1 -8 8z" fill="#3397e8"/><path d="m392 144h64v224h-64z" fill="#ffd33a" transform="matrix(-1 0 0 -1 848 512)"/><path d="m416 64h16l24 80h-64z" fill="#d49073"/><path d="m441.6 96h-35.2l9.6-32h16z" fill="#3397e8"/><path d="m392 368h64v32h-64z" fill="#d49073" transform="matrix(-1 0 0 -1 848 768)"/><path d="m424 448a32 32 0 0 0 32-32v-16h-64v16a32 32 0 0 0 32 32z" fill="#e9eef2"/><path d="m416 144h16v224h-16z" fill="#f7b030"/></svg>