<svg height="497pt" viewBox="-27 0 497 497.158" width="497pt" xmlns="http://www.w3.org/2000/svg"><path d="m187.054688 327.671875.65625 8h20l-.65625-8zm0 0" fill="#d4e1f4"/><path d="m188.699219 347.671875.65625 8h20l-.65625-8zm0 0" fill="#d4e1f4"/><path d="m211.738281 367.671875h-20c5.945313 14.445313 22.25 21.605469 36.910157 16.207031-7.636719-2.828125-13.761719-8.695312-16.910157-16.207031zm0 0" fill="#d4e1f4"/><path d="m238.746094 214.34375c7.164062 0 14.296875-.960938 21.199218-2.867188l.765626-9.050781c-9.71875 6.015625-20.625 9.863281-31.964844 11.285157 3.316406.417968 6.65625.628906 10 .632812zm0 0" fill="#d4e1f4"/><path d="m176.757812 202.40625 9.308594 113.265625h20l-8.566406-104.207031c-7.308594-2.019532-14.296875-5.066406-20.742188-9.058594zm0 0" fill="#d4e1f4"/><path d="m163.902344 192.523438 13.769531 167.484374c1.671875 19.03125 16.175781 34.433594 35.074219 37.246094v25.839844c-.03125 26.992188 21.800781 48.910156 48.789062 48.984375h.242188c26.964844 0 48.847656-21.820313 48.921875-48.785156v-139.5c-.003907-16.632813 13.476562-30.121094 30.109375-30.125 16.632812-.003907 30.121094 13.476562 30.125 30.109375v207.378906c0 3.316406 2.6875 6 6 6s6-2.683594 6-6v-207.390625c-.003906-23.257813-18.863282-42.113281-42.125-42.109375-23.257813.003906-42.113282 18.863281-42.109375 42.121094v139.421875c-.023438 20.375-16.546875 36.878906-36.921875 36.878906h-.144532c-20.398437-.023437-36.910156-16.578125-36.882812-36.972656v-25.890625c18.808594-2.761719 33.207031-18.164063 34.695312-37.117188l14.152344-167.570312c23.917969-22.492188 31.679688-57.304688 19.582032-87.824219-12.097657-30.519531-41.597657-50.5625-74.429688-50.5625s-62.335938 20.042969-74.429688 50.5625c-12.097656 30.519531-4.335937 65.332031 19.582032 87.824219zm23.152344 135.148437h63.082031l-.671875 8h-61.753906zm1.644531 20h59.746093l-.675781 8h-58.414062zm29.863281 38c-11.746094-.0625-22.3125-7.152344-26.824219-18h53.699219c-4.429688 10.9375-15.078125 18.066406-26.875 18zm32.589844-70h-65.085938l-9.308594-113.265625c25.722657 15.910156 58.230469 15.917969 83.960938.019531zm-71.023438-125.394531h77.246094c-23.238281 16.085937-54.011719 16.085937-77.246094 0zm90.492188-12h-103.738282c-3.386718-3.984375-6.304687-8.347656-8.695312-13h121.125c-2.390625 4.652344-5.304688 9.015625-8.691406 13zm15.914062-50h-135.566406c.386719-4.402344 1.203125-8.753906 2.4375-13h130.6875c1.238281 4.246094 2.054688 8.597656 2.441406 13zm0 12c-.386718 4.40625-1.203125 8.757812-2.441406 13h-130.6875c-1.234375-4.242188-2.050781-8.59375-2.4375-13zm-29.160156-62h-77.246094c23.234375-16.082032 54.007813-16.082032 77.246094 0zm-90.492188 12h103.738282c3.386718 3.988281 6.300781 8.351562 8.691406 13h-121.125c2.390625-4.652344 5.308594-9.011719 8.695312-13zm0 0" fill="#0635c9"/><path d="m212.746094 246.03125v30.578125c0 3.3125 2.6875 6 6 6 3.316406 0 6-2.6875 6-6v-30.578125c0-3.3125-2.683594-6-6-6-3.3125 0-6 2.6875-6 6zm0 0" fill="#0635c9"/><g fill="#1ae5be"><path d="m442.679688 33.371094v-19.5625c0-4.140625-1.859376-8.0625-5.066407-10.6875-3.207031-2.621094-7.421875-3.664063-11.480469-2.84375l-52.554687 10.644531c-6.429687 1.320313-11.046875 6.96875-11.066406 13.53125v34.59375c-8.722657-4.402344-19.304688-2.472656-25.914063 4.71875-6.613281 7.195313-7.640625 17.90625-2.515625 26.226563 5.121094 8.316406 15.144531 12.222656 24.546875 9.558593 9.398438-2.660156 15.886719-11.246093 15.882813-21.015625v-26.488281l56.167969-11.378906v38.359375c-8.742188-4.328125-19.292969-2.335938-25.855469 4.886718-6.558594 7.21875-7.535157 17.914063-2.390625 26.203126 5.148437 8.289062 15.164062 12.15625 24.546875 9.480468 9.378906-2.675781 15.847656-11.25 15.847656-21.003906-.003906-.832031-.050781-1.660156-.148437-2.484375zm-90.007813 55.007812c-5.4375 0-9.84375-4.40625-9.84375-9.84375 0-5.433594 4.40625-9.84375 9.84375-9.84375 5.433594 0 9.839844 4.410156 9.839844 9.84375-.003907 5.433594-4.40625 9.835938-9.839844 9.84375zm21.839844-48.574218v-15.351563c.003906-.855469.609375-1.597656 1.449219-1.769531l52.554687-10.644532c.53125-.109374 1.082031.027344 1.503906.371094.417969.34375.660157.859375.660157 1.398438v14.617187zm46.472656 68.632812c-5.226563.003906-9.546875-4.078125-9.835937-9.292969-.292969-5.21875 3.546874-9.753906 8.738281-10.332031 5.195312-.578125 9.933593 3.003906 10.796875 8.160156v1.332032c0 .367187.035156.734374.105468 1.097656-.425781 5.101562-4.6875 9.027344-9.804687 9.035156zm0 0"/><path d="m43.753906 241.699219v-26.488281l56.167969-11.378907v38.363281c-8.742187-4.332031-19.296875-2.339843-25.855469 4.882813-6.558594 7.21875-7.535156 17.914063-2.390625 26.203125s15.164063 12.15625 24.542969 9.480469c9.382812-2.675781 15.851562-11.25 15.847656-21.003907 0-.832031-.050781-1.660156-.144531-2.484374v-82.292969c0-4.144531-1.859375-8.066407-5.066406-10.691407-3.207031-2.621093-7.421875-3.664062-11.484375-2.84375l-52.550782 10.640626c-6.429687 1.320312-11.050781 6.972656-11.066406 13.535156v34.589844c-8.722656-4.402344-19.308594-2.472657-25.917968 4.71875-6.609376 7.195312-7.636719 17.90625-2.515626 26.226562 5.121094 8.316406 15.148438 12.222656 24.546876 9.558594 9.402343-2.660156 15.886718-11.246094 15.886718-21.015625zm46.46875 29.902343c-5.226562.003907-9.542968-4.078124-9.835937-9.296874-.289063-5.21875 3.546875-9.753907 8.742187-10.332032 5.195313-.574218 9.933594 3.007813 10.796875 8.160156v1.335938c0 .367188.03125.734375.097657 1.097656-.421876 5.101563-4.683594 9.027344-9.800782 9.035156zm-45.019531-85.753906 52.550781-10.644531c.53125-.109375 1.085938.027344 1.503906.371094.421876.34375.664063.859375.664063 1.402343v14.613282l-56.167969 11.378906v-15.347656c0-.859375.605469-1.601563 1.449219-1.773438zm-33.136719 55.851563c0-5.433594 4.40625-9.84375 9.84375-9.84375s9.84375 4.410156 9.84375 9.84375c0 5.4375-4.40625 9.84375-9.84375 9.84375-5.433594-.007813-9.835937-4.410157-9.84375-9.84375zm0 0"/><path d="m87.179688 83.820312c11.785156 0 21.339843-9.554687 21.339843-21.339843 0-11.785157-9.554687-21.339844-21.339843-21.339844-11.789063 0-21.339844 9.554687-21.339844 21.339844.011718 11.78125 9.558594 21.328125 21.339844 21.339843zm0-30.679687c5.15625 0 9.339843 4.183594 9.339843 9.339844 0 5.160156-4.183593 9.339843-9.339843 9.339843-5.160157 0-9.339844-4.179687-9.339844-9.339843.003906-5.15625 4.183594-9.332031 9.339844-9.339844zm0 0"/><path d="m399.027344 164.601562c-10.050782 0-18.199219 8.148438-18.199219 18.203126 0 10.050781 8.148437 18.199218 18.199219 18.199218 10.050781 0 18.199218-8.148437 18.199218-18.199218-.011718-10.046876-8.152343-18.191407-18.199218-18.203126zm0 24.402344c-3.421875 0-6.199219-2.777344-6.199219-6.199218 0-3.425782 2.777344-6.203126 6.199219-6.203126 3.425781 0 6.199218 2.777344 6.199218 6.203126 0 3.421874-2.777343 6.195312-6.199218 6.199218zm0 0"/><path d="m54.273438 343.738281c.003906-10.597656-8.585938-19.183593-19.179688-19.183593-10.597656 0-19.183594 8.585937-19.183594 19.183593 0 10.59375 8.589844 19.179688 19.183594 19.179688 10.589844-.007813 19.171875-8.589844 19.179688-19.179688zm-19.179688 7.179688c-3.96875 0-7.183594-3.214844-7.183594-7.179688 0-3.96875 3.214844-7.183593 7.183594-7.183593 3.964844 0 7.183594 3.214843 7.179688 7.183593-.003907 3.964844-3.214844 7.175781-7.179688 7.179688zm0 0"/><path d="m294.851562 39.332031c10.863282 0 19.667969-8.804687 19.667969-19.667969 0-10.859374-8.804687-19.664062-19.667969-19.664062-10.859374 0-19.664062 8.804688-19.664062 19.664062.011719 10.859376 8.808594 19.65625 19.664062 19.667969zm0-27.332031c4.234376 0 7.667969 3.433594 7.667969 7.664062 0 4.234376-3.433593 7.667969-7.667969 7.667969-4.234374 0-7.664062-3.433593-7.664062-7.667969.003906-4.230468 3.433594-7.660156 7.664062-7.664062zm0 0"/></g></svg>